<!DOCTYPE svg PUBLIC "-//W3C//DTD SVG 1.1//EN" "http://www.w3.org/Graphics/SVG/1.1/DTD/svg11.dtd">
<!-- Uploaded to: SVG Repo, www.svgrepo.com, Transformed by: SVG Repo Mixer Tools -->
<svg fill="#ff0000" width="64px" height="64px" viewBox="0 0 32 32" version="1.1" xmlns="http://www.w3.org/2000/svg" stroke="#ff0000">
<g id="SVGRepo_bgCarrier" stroke-width="0"/>
<g id="SVGRepo_tracerCarrier" stroke-linecap="round" stroke-linejoin="round"/>
<g id="SVGRepo_iconCarrier"> <title>calendar2</title> <path d="M11 3h-2v4h2v-4zM22 8h-2v2h2v-2zM11 8h-2v2h2v-2zM22.938 6l0.062 5h-4v-5h-7v5h-4v-5h-3v24h21v-24h-3.062zM11 26.938h-3v-3h3v3zM11 22.938h-3v-3h3v3zM11 18.938h-3v-3h3v3zM15 26.938h-3v-3h3v3zM15 22.938h-3v-3h3v3zM15 18.938h-3v-3h3v3zM19 26.938h-3v-3h3v3zM19 22.938h-3v-3h3v3zM19 18.938h-3v-3h3v3zM23 26.938h-3v-3h3v3zM23 22.938h-3v-3h3v3zM23 18.938h-3v-3h3v3zM22 3h-2v4h2v-4z"/> </g>
</svg>